<?xml version="1.0" encoding="utf-8"?>
<!-- Generator: Adobe Illustrator 23.0.0, SVG Export Plug-In . SVG Version: 6.00 Build 0)  -->
<svg version="1.1" id="Capa_1" xmlns="http://www.w3.org/2000/svg" xmlns:xlink="http://www.w3.org/1999/xlink" x="0px" y="0px"
	 viewBox="0 0 50 50" style="enable-background:new 0 0 50 50;" xml:space="preserve">
<style type="text/css">
	.st0{fill:#37384B;}
</style>
<g>
	<path class="st0" d="M43.3,0H6.7C3,0,0,3,0,6.7v36.6C0,47,3,50,6.7,50h36.6c3.7,0,6.7-3,6.7-6.7V6.7C50,3,47,0,43.3,0z M25,36.7
		c-5.6,0-10.1-4.5-10.1-10.1c0-1.8,0.5-3.6,1.4-5.2c0.3-0.5,0.9-0.7,1.4-0.4c0.5,0.3,0.7,0.9,0.4,1.4c-0.7,1.2-1.1,2.7-1.1,4.1
		c0,4.4,3.6,8,8,8s8-3.6,8-8c0-3.2-1.9-5.9-4.6-7.2V23L20,18.1l8.4-4.9v3.9c3.9,1.4,6.6,5.1,6.6,9.5C35.1,32.2,30.6,36.7,25,36.7z"
		/>
</g>
</svg>
