<?xml version="1.0" encoding="utf-8"?>
<!-- Generator: Adobe Illustrator 23.0.0, SVG Export Plug-In . SVG Version: 6.00 Build 0)  -->
<svg version="1.1" xmlns="http://www.w3.org/2000/svg" xmlns:xlink="http://www.w3.org/1999/xlink" x="0px" y="0px"
	 viewBox="0 0 50 50" style="enable-background:new 0 0 50 50;" xml:space="preserve">
<style type="text/css">
	.st0{fill:none;stroke:#37384B;stroke-width:4;stroke-miterlimit:10;}
	.st1{fill:none;stroke:#37384B;stroke-width:4;stroke-miterlimit:10;stroke-dasharray:4.7367,6.3156,4.7367,4.7367;}
	.st2{fill:none;stroke:#37384B;stroke-width:4;stroke-miterlimit:10;stroke-dasharray:4.5139,6.0186,4.5139,4.5139;}
	.st3{fill:#37384B;}
</style>
<g id="Capa_2">
</g>
<g id="Capa_1">
	<rect x="-1324" y="127.6" style="fill:none;" width="190" height="44.7"/>
	<text transform="matrix(1 0 0 1 -1323.9783 163.9153)" class="st3" style="font-family:'Georgia'; font-size:48px;">miskegel</text>
	<g>
		<g>
			<g>
				<line class="st0" x1="-1212.5" y1="176" x2="-1215.3" y2="178.8"/>
				<line class="st1" x1="-1218.7" y1="182.2" x2="-1231.5" y2="195"/>
				<polyline class="st0" points="-1233.2,196.7 -1236,199.5 -1238.8,196.7 				"/>
				<line class="st1" x1="-1242.2" y1="193.3" x2="-1255" y2="180.5"/>
				<line class="st0" x1="-1256.7" y1="178.8" x2="-1259.5" y2="176"/>
			</g>
		</g>
		<g>
			<g>
				<line class="st0" x1="-1258.7" y1="123.2" x2="-1255.9" y2="120.4"/>
				<line class="st2" x1="-1252.7" y1="117.2" x2="-1240.4" y2="104.9"/>
				<polyline class="st0" points="-1238.8,103.3 -1236,100.5 -1233.2,103.3 				"/>
				<line class="st2" x1="-1230" y1="106.5" x2="-1217.7" y2="118.8"/>
				<line class="st0" x1="-1216.1" y1="120.4" x2="-1213.3" y2="123.2"/>
			</g>
		</g>
	</g>
	<g>
		<g>
			<path class="st3" d="M-768.8,158.9H-780v-1.5c0.4,0,0.7-0.1,1.1-0.1s0.7-0.1,1-0.2c0.4-0.1,0.8-0.4,1-0.7s0.3-0.8,0.3-1.4V143
				c0-1.6-0.4-2.9-1.1-3.8s-1.7-1.3-2.8-1.3c-0.8,0-1.5,0.1-2.2,0.4s-1.3,0.6-1.9,1c-0.5,0.3-0.8,0.7-1.1,1.1s-0.5,0.7-0.7,1v13.3
				c0,0.5,0.1,1,0.3,1.3s0.5,0.6,1,0.8c0.4,0.1,0.7,0.2,1,0.3s0.7,0.1,1.1,0.2v1.5h-11v-1.5c0.4,0,0.7-0.1,1-0.1s0.6-0.1,0.9-0.2
				c0.4-0.1,0.8-0.4,1-0.7s0.3-0.8,0.3-1.4V143c0-1.6-0.4-2.9-1.1-3.8s-1.7-1.3-2.8-1.3c-0.8,0-1.5,0.1-2.2,0.4
				c-0.7,0.2-1.3,0.6-1.9,1c-0.5,0.3-0.8,0.7-1.2,1.2s-0.5,0.8-0.7,1v13.2c0,0.5,0.1,1,0.3,1.3s0.5,0.6,1,0.8c0.3,0.2,0.7,0.3,1,0.4
				s0.7,0.1,1.1,0.2v1.5h-11.2v-1.5c0.4,0,0.7-0.1,1.1-0.1s0.7-0.1,1-0.2c0.4-0.1,0.8-0.4,1-0.7c0.2-0.4,0.3-0.8,0.3-1.4v-14.4
				c0-0.5-0.1-0.9-0.3-1.3c-0.2-0.4-0.5-0.7-0.9-1c-0.3-0.2-0.7-0.3-1.1-0.5s-0.9-0.2-1.4-0.2V136l7.7-0.5l0.3,0.3v3.3h0.2
				c0.4-0.4,0.9-0.9,1.4-1.4s1.1-1,1.6-1.3c0.5-0.4,1.2-0.7,2.1-0.9s1.7-0.4,2.7-0.4c1.5,0,2.8,0.4,3.9,1.2s1.9,1.8,2.3,2.9
				c0.6-0.5,1.1-1,1.5-1.4c0.4-0.4,1-0.9,1.7-1.3c0.6-0.4,1.3-0.7,2.1-1s1.7-0.4,2.7-0.4c1.9,0,3.5,0.6,4.6,1.9s1.7,3.3,1.7,5.9
				v11.7c0,0.5,0.1,1,0.3,1.3s0.5,0.6,1,0.8c0.4,0.1,0.7,0.2,1.1,0.3s0.7,0.1,1.2,0.2V158.9z"/>
			<path class="st3" d="M-754.8,158.9H-766v-1.5c0.4,0,0.7-0.1,1.1-0.1s0.7-0.1,1-0.2c0.4-0.1,0.8-0.4,1-0.7
				c0.2-0.4,0.3-0.8,0.3-1.4v-14.3c0-0.5-0.1-1-0.3-1.4s-0.5-0.8-0.9-1c-0.3-0.2-0.7-0.3-1.3-0.5s-1.1-0.2-1.5-0.2V136l8.2-0.5
				l0.3,0.3v18.8c0,0.5,0.1,1,0.3,1.4c0.2,0.4,0.5,0.6,1,0.8c0.3,0.1,0.7,0.3,1,0.3c0.3,0.1,0.7,0.1,1.1,0.2V158.9z M-757.7,126.4
				c0,0.9-0.3,1.7-0.9,2.3s-1.3,1-2.2,1c-0.8,0-1.5-0.3-2.1-0.9s-0.9-1.4-0.9-2.2c0-0.9,0.3-1.6,0.9-2.3s1.3-1,2.1-1
				c0.9,0,1.6,0.3,2.2,0.9S-757.7,125.6-757.7,126.4z"/>
			<path class="st3" d="M-736.7,147.6c0.6,0.6,1.1,1.2,1.5,1.9c0.3,0.7,0.5,1.6,0.5,2.7c0,2.1-0.8,3.9-2.4,5.3s-3.7,2-6.2,2
				c-1.3,0-2.6-0.2-3.7-0.7s-1.9-0.9-2.4-1.3l-0.5,1.5h-1.8l-0.2-8h1.6c0.1,0.6,0.4,1.3,0.8,2.1s0.9,1.6,1.5,2.2
				c0.6,0.7,1.3,1.3,2.2,1.7c0.9,0.5,1.8,0.7,2.9,0.7c1.5,0,2.7-0.3,3.5-1s1.2-1.7,1.2-2.9c0-0.7-0.1-1.2-0.4-1.7s-0.6-0.9-1.1-1.3
				c-0.5-0.4-1.1-0.7-1.9-1c-0.8-0.3-1.6-0.6-2.5-0.9c-0.7-0.2-1.6-0.5-2.4-0.9s-1.7-0.8-2.3-1.3c-0.7-0.5-1.3-1.2-1.7-2
				s-0.7-1.7-0.7-2.8c0-1.9,0.7-3.5,2.1-4.8s3.3-2,5.6-2c0.9,0,1.8,0.1,2.8,0.4s1.7,0.5,2.3,0.8l0.5-1.2h1.7l0.4,7.4h-1.6
				c-0.3-1.7-1-3-2.1-4.1s-2.4-1.6-4-1.6c-1.3,0-2.3,0.3-3,1c-0.7,0.6-1.1,1.4-1.1,2.3c0,0.7,0.1,1.3,0.4,1.8s0.6,0.9,1.1,1.2
				c0.5,0.3,1.1,0.6,1.8,0.9s1.6,0.6,2.6,0.9c1,0.3,2,0.7,2.9,1.1S-737.3,147.1-736.7,147.6z"/>
			<path class="st3" d="M-706.7,158.9h-7c-1.2-1.8-2.5-3.7-3.9-5.7c-1.4-2-2.8-4-4.3-5.9l-1.9,1.8v5.5c0,0.6,0.1,1,0.3,1.4
				s0.5,0.6,1,0.8c0.4,0.2,0.7,0.3,1.1,0.4s0.7,0.1,1.2,0.2v1.5h-11.3v-1.5c0.4,0,0.7-0.1,1.1-0.1s0.7-0.1,1-0.2
				c0.4-0.1,0.8-0.4,1-0.7c0.2-0.4,0.3-0.8,0.3-1.4v-26.9c0-0.6-0.1-1.1-0.4-1.6s-0.6-0.9-0.9-1.2c-0.3-0.3-0.8-0.4-1.5-0.5
				c-0.7-0.1-1.3-0.1-1.7-0.2v-1.5l8.6-0.5l0.3,0.4v24.4c1.2-1.2,2.5-2.5,4-3.9c1.4-1.4,2.6-2.6,3.6-3.7c0.1-0.1,0.3-0.3,0.4-0.6
				c0.1-0.2,0.2-0.4,0.2-0.6c0-0.4-0.3-0.7-1-0.9s-1.3-0.3-2-0.4v-1.5h10.2v1.5c-1.3,0.4-2.5,0.9-3.5,1.5s-1.8,1.1-2.3,1.6
				c-0.4,0.3-0.9,0.8-1.6,1.5c-0.7,0.7-1.7,1.6-2.9,2.8c1.3,1.6,2.7,3.5,4.3,5.7s2.8,3.8,3.5,4.8c0.7,0.9,1.3,1.5,1.9,1.8
				s1.3,0.5,2.4,0.5V158.9z"/>
			<path class="st3" d="M-685,153.5c-1,1.8-2.3,3.3-3.9,4.4s-3.5,1.6-5.6,1.6c-1.9,0-3.5-0.3-4.9-1s-2.6-1.5-3.5-2.7s-1.6-2.4-2-3.9
				s-0.7-3.1-0.7-4.8c0-1.5,0.2-3,0.7-4.4s1.2-2.7,2.1-3.9c0.9-1.1,2-2,3.3-2.7s2.8-1,4.4-1c1.7,0,3.1,0.3,4.3,0.8s2.2,1.3,2.9,2.2
				c0.7,0.9,1.3,1.9,1.6,3.1s0.5,2.5,0.5,3.9v1.5h-15.3c0,1.5,0.1,2.9,0.4,4.1c0.3,1.2,0.7,2.3,1.4,3.3c0.6,0.9,1.4,1.6,2.4,2.1
				c1,0.5,2.2,0.8,3.5,0.8c1.4,0,2.6-0.3,3.6-1c1-0.7,2-1.8,2.9-3.5L-685,153.5z M-690.1,144.7c0-0.9-0.1-1.8-0.2-2.8
				s-0.4-1.8-0.7-2.5c-0.4-0.7-0.9-1.3-1.5-1.8c-0.6-0.5-1.4-0.7-2.4-0.7c-1.6,0-3,0.7-4.1,2c-1.1,1.4-1.7,3.3-1.8,5.7H-690.1z"/>
			<path class="st3" d="M-662.5,156.5c0.6,0.6,1.1,1.3,1.5,2s0.5,1.7,0.5,2.8s-0.2,2.2-0.7,3.1s-1.2,1.8-2.2,2.5
				c-1,0.7-2.3,1.3-3.8,1.7s-3.3,0.6-5.4,0.6c-3.5,0-6.1-0.5-7.9-1.5s-2.6-2.5-2.6-4.5c0-1.6,0.6-2.9,1.9-3.8s2.8-1.4,4.8-1.5v-0.3
				c-0.5-0.1-1-0.3-1.5-0.5s-0.9-0.5-1.3-0.7c-0.4-0.3-0.7-0.7-1-1.2s-0.4-1-0.4-1.7c0-0.8,0.3-1.6,0.9-2.3s1.5-1.3,2.7-1.8v-0.4
				c-1.5-0.7-2.7-1.6-3.5-2.7s-1.2-2.4-1.2-3.8c0-2.2,0.8-4,2.4-5.4s3.7-2.1,6.3-2.1c0.7,0,1.4,0.1,2.1,0.2s1.4,0.3,2.1,0.5h8.1v2.3
				h-5.4v0.1c0.6,0.7,1,1.4,1.3,2.2s0.4,1.6,0.4,2.4c0,2-0.8,3.8-2.5,5.2s-3.6,2.1-5.8,2.1h-2.8c-0.4,0.1-0.7,0.4-1.1,0.7
				s-0.6,0.8-0.6,1.3c0,0.6,0.2,1,0.5,1.3s0.7,0.5,1.2,0.6c0.5,0.1,1,0.2,1.6,0.2s1.2,0.1,1.9,0.1c0.7,0,1.6,0.1,2.8,0.1
				s2,0.1,2.5,0.1c0.7,0,1.4,0.2,2.2,0.5S-663.1,156-662.5,156.5z M-664.3,162.2c0-0.9-0.2-1.6-0.6-2.2s-1-0.9-1.9-1.1
				c-0.4-0.1-1.3-0.1-2.7-0.2s-2.9-0.1-4.7-0.1c-1.7,0.3-2.9,0.9-3.6,1.7s-1.1,1.8-1.1,3c0,0.5,0.1,1.1,0.4,1.6s0.6,1,1.2,1.4
				c0.5,0.4,1.3,0.7,2.2,1s2,0.4,3.4,0.4c2.3,0,4.1-0.4,5.4-1.3S-664.3,164-664.3,162.2z M-668.8,142.8c0-1.8-0.4-3.3-1.1-4.4
				s-1.8-1.6-3.1-1.6c-0.7,0-1.4,0.2-1.9,0.5s-0.9,0.7-1.3,1.3c-0.3,0.5-0.5,1.1-0.7,1.9s-0.2,1.5-0.2,2.2c0,1.7,0.4,3.1,1.1,4.2
				s1.7,1.6,2.9,1.6c1.3,0,2.4-0.5,3.1-1.6S-668.8,144.5-668.8,142.8z"/>
			<path class="st3" d="M-637.3,153.5c-1,1.8-2.3,3.3-3.9,4.4s-3.5,1.6-5.6,1.6c-1.9,0-3.5-0.3-4.9-1s-2.6-1.5-3.5-2.7
				s-1.6-2.4-2-3.9s-0.7-3.1-0.7-4.8c0-1.5,0.2-3,0.7-4.4s1.2-2.7,2.1-3.9c0.9-1.1,2-2,3.3-2.7s2.8-1,4.4-1c1.7,0,3.1,0.3,4.3,0.8
				s2.2,1.3,2.9,2.2c0.7,0.9,1.3,1.9,1.6,3.1s0.5,2.5,0.5,3.9v1.5h-15.3c0,1.5,0.1,2.9,0.4,4.1c0.3,1.2,0.7,2.3,1.4,3.3
				c0.6,0.9,1.4,1.6,2.4,2.1c1,0.5,2.2,0.8,3.5,0.8c1.4,0,2.6-0.3,3.6-1c1-0.7,2-1.8,2.9-3.5L-637.3,153.5z M-642.5,144.7
				c0-0.9-0.1-1.8-0.2-2.8s-0.4-1.8-0.7-2.5c-0.4-0.7-0.9-1.3-1.5-1.8c-0.6-0.5-1.4-0.7-2.4-0.7c-1.6,0-3,0.7-4.1,2
				c-1.1,1.4-1.7,3.3-1.8,5.7H-642.5z"/>
			<path class="st3" d="M-623.8,158.9h-11.3v-1.5c0.4,0,0.7-0.1,1.1-0.1s0.7-0.1,1-0.2c0.4-0.1,0.8-0.4,1-0.7
				c0.2-0.4,0.3-0.8,0.3-1.4v-26.8c0-0.6-0.1-1.1-0.4-1.6s-0.6-0.9-0.9-1.2c-0.3-0.2-0.8-0.4-1.5-0.5c-0.8-0.2-1.4-0.3-1.8-0.3v-1.5
				l8.7-0.5l0.3,0.4v31.7c0,0.5,0.1,1,0.3,1.3s0.5,0.6,1,0.8c0.3,0.2,0.7,0.3,1,0.4s0.7,0.1,1.1,0.2V158.9z"/>
		</g>
		<g>
			<g>
				<g>
					
						<rect x="-701.9" y="171.4" transform="matrix(0.7071 -0.7071 0.7071 0.7071 -327.6028 -444.1141)" class="st3" width="4" height="4"/>
				</g>
				<g>
					<path class="st3" d="M-714.4,190.7l-2.8-2.8l3.3-3.3l2.8,2.8L-714.4,190.7z M-706.6,182.9l-2.8-2.8l3.3-3.3l2.8,2.8
						L-706.6,182.9z"/>
				</g>
				<g>
					<polygon class="st3" points="-722,198.3 -726.2,194.1 -723.4,191.3 -722,192.7 -720.6,191.3 -717.8,194.1 					"/>
				</g>
				<g>
					<path class="st3" d="M-729.6,190.7l-3.3-3.3l2.8-2.8l3.3,3.3L-729.6,190.7z M-737.4,182.9l-3.3-3.3l2.8-2.8l3.3,3.3
						L-737.4,182.9z"/>
				</g>
				<g>
					
						<rect x="-746.1" y="171.4" transform="matrix(0.7071 -0.7071 0.7071 0.7071 -340.5519 -475.3759)" class="st3" width="4" height="4"/>
				</g>
			</g>
			<g>
				<g>
					
						<rect x="-745.3" y="115.8" transform="matrix(0.7071 -0.7071 0.7071 0.7071 -300.9705 -491.0753)" class="st3" width="4" height="4"/>
				</g>
				<g>
					<path class="st3" d="M-737.2,114.6l-2.8-2.8l3.2-3.2l2.8,2.8L-737.2,114.6z M-729.8,107.1l-2.8-2.8l3.2-3.2l2.8,2.8
						L-729.8,107.1z"/>
				</g>
				<g>
					<polygon class="st3" points="-720.6,100.7 -722,99.3 -723.4,100.7 -726.2,97.9 -722,93.7 -717.8,97.9 					"/>
				</g>
				<g>
					<path class="st3" d="M-706.8,114.6l-3.2-3.2l2.8-2.8l3.2,3.2L-706.8,114.6z M-714.2,107.1l-3.2-3.2l2.8-2.8l3.2,3.2
						L-714.2,107.1z"/>
				</g>
				<g>
					
						<rect x="-702.7" y="115.8" transform="matrix(0.7072 -0.707 0.707 0.7072 -288.4634 -460.9656)" class="st3" width="4" height="4"/>
				</g>
			</g>
		</g>
	</g>
	<g>
		<g>
			<path class="st3" d="M-237.5,37.9h-11.3v-1.5c0.4,0,0.7-0.1,1.1-0.1s0.7-0.1,1-0.2c0.4-0.1,0.8-0.4,1-0.7s0.3-0.8,0.3-1.4V22
				c0-1.6-0.4-2.9-1.1-3.8s-1.7-1.3-2.8-1.3c-0.8,0-1.5,0.1-2.2,0.4s-1.3,0.6-1.9,1c-0.5,0.3-0.8,0.7-1.1,1.1s-0.5,0.7-0.7,1v13.3
				c0,0.5,0.1,1,0.3,1.3s0.5,0.6,1,0.8c0.4,0.1,0.7,0.2,1,0.3s0.7,0.1,1.1,0.2v1.5h-11v-1.5c0.4,0,0.7-0.1,1-0.1s0.6-0.1,0.9-0.2
				c0.4-0.1,0.8-0.4,1-0.7s0.3-0.8,0.3-1.4V22c0-1.6-0.4-2.9-1.1-3.8s-1.7-1.3-2.8-1.3c-0.8,0-1.5,0.1-2.2,0.4
				c-0.7,0.2-1.3,0.6-1.9,1c-0.5,0.3-0.8,0.7-1.2,1.2s-0.5,0.8-0.7,1v13.2c0,0.5,0.1,1,0.3,1.3s0.5,0.6,1,0.8c0.3,0.2,0.7,0.3,1,0.4
				s0.7,0.1,1.1,0.2v1.5h-11.2v-1.5c0.4,0,0.7-0.1,1.1-0.1s0.7-0.1,1-0.2c0.4-0.1,0.8-0.4,1-0.7c0.2-0.4,0.3-0.8,0.3-1.4V19.6
				c0-0.5-0.1-0.9-0.3-1.3c-0.2-0.4-0.5-0.7-0.9-1c-0.3-0.2-0.7-0.3-1.1-0.5s-0.9-0.2-1.4-0.2V15l7.7-0.5l0.3,0.3v3.3h0.2
				c0.4-0.4,0.9-0.9,1.4-1.4s1.1-1,1.6-1.3c0.5-0.4,1.2-0.7,2.1-0.9s1.7-0.4,2.7-0.4c1.5,0,2.8,0.4,3.9,1.2s1.9,1.8,2.3,2.9
				c0.6-0.5,1.1-1,1.5-1.4c0.4-0.4,1-0.9,1.7-1.3c0.6-0.4,1.3-0.7,2.1-1s1.7-0.4,2.7-0.4c1.9,0,3.5,0.6,4.6,1.9s1.7,3.3,1.7,5.9
				v11.7c0,0.5,0.1,1,0.3,1.3s0.5,0.6,1,0.8c0.4,0.1,0.7,0.2,1.1,0.3s0.7,0.1,1.2,0.2V37.9z"/>
			<path class="st3" d="M-223.6,37.9h-11.2v-1.5c0.4,0,0.7-0.1,1.1-0.1s0.7-0.1,1-0.2c0.4-0.1,0.8-0.4,1-0.7
				c0.2-0.4,0.3-0.8,0.3-1.4V19.7c0-0.5-0.1-1-0.3-1.4s-0.5-0.8-0.9-1c-0.3-0.2-0.7-0.3-1.3-0.5s-1.1-0.2-1.5-0.2V15l8.2-0.5
				l0.3,0.3v18.8c0,0.5,0.1,1,0.3,1.4c0.2,0.4,0.5,0.6,1,0.8c0.3,0.1,0.7,0.3,1,0.3c0.3,0.1,0.7,0.1,1.1,0.2V37.9z M-226.5,5.4
				c0,0.9-0.3,1.7-0.9,2.3s-1.3,1-2.2,1c-0.8,0-1.5-0.3-2.1-0.9s-0.9-1.4-0.9-2.2c0-0.9,0.3-1.6,0.9-2.3s1.3-1,2.1-1
				c0.9,0,1.6,0.3,2.2,0.9S-226.5,4.6-226.5,5.4z"/>
			<path class="st3" d="M-205.4,26.6c0.6,0.6,1.1,1.2,1.5,1.9c0.3,0.7,0.5,1.6,0.5,2.7c0,2.1-0.8,3.9-2.4,5.3s-3.7,2-6.2,2
				c-1.3,0-2.6-0.2-3.7-0.7s-1.9-0.9-2.4-1.3l-0.5,1.5h-1.8l-0.2-8h1.6c0.1,0.6,0.4,1.3,0.8,2.1s0.9,1.6,1.5,2.2
				c0.6,0.7,1.3,1.3,2.2,1.7c0.9,0.5,1.8,0.7,2.9,0.7c1.5,0,2.7-0.3,3.5-1s1.2-1.7,1.2-2.9c0-0.7-0.1-1.2-0.4-1.7s-0.6-0.9-1.1-1.3
				c-0.5-0.4-1.1-0.7-1.9-1c-0.8-0.3-1.6-0.6-2.5-0.9c-0.7-0.2-1.6-0.5-2.4-0.9s-1.7-0.8-2.3-1.3c-0.7-0.5-1.3-1.2-1.7-2
				s-0.7-1.7-0.7-2.8c0-1.9,0.7-3.5,2.1-4.8s3.3-2,5.6-2c0.9,0,1.8,0.1,2.8,0.4s1.7,0.5,2.3,0.8l0.5-1.2h1.7l0.4,7.4h-1.6
				c-0.3-1.7-1-3-2.1-4.1s-2.4-1.6-4-1.6c-1.3,0-2.3,0.3-3,1c-0.7,0.6-1.1,1.4-1.1,2.3c0,0.7,0.1,1.3,0.4,1.8s0.6,0.9,1.1,1.2
				c0.5,0.3,1.1,0.6,1.8,0.9s1.6,0.6,2.6,0.9c1,0.3,2,0.7,2.9,1.1S-206,26.1-205.4,26.6z"/>
			<path class="st3" d="M-175.5,37.9h-7c-1.2-1.8-2.5-3.7-3.9-5.7c-1.4-2-2.8-4-4.3-5.9l-1.9,1.8v5.5c0,0.6,0.1,1,0.3,1.4
				s0.5,0.6,1,0.8c0.4,0.2,0.7,0.3,1.1,0.4s0.7,0.1,1.2,0.2v1.5h-11.3v-1.5c0.4,0,0.7-0.1,1.1-0.1s0.7-0.1,1-0.2
				c0.4-0.1,0.8-0.4,1-0.7c0.2-0.4,0.3-0.8,0.3-1.4V7.1c0-0.6-0.1-1.1-0.4-1.6s-0.6-0.9-0.9-1.2c-0.3-0.3-0.8-0.4-1.5-0.5
				c-0.7-0.1-1.3-0.1-1.7-0.2V2.2l8.6-0.5l0.3,0.4v24.4c1.2-1.2,2.5-2.5,4-3.9c1.4-1.4,2.6-2.6,3.6-3.7c0.1-0.1,0.3-0.3,0.4-0.6
				c0.1-0.2,0.2-0.4,0.2-0.6c0-0.4-0.3-0.7-1-0.9s-1.3-0.3-2-0.4v-1.5h10.2v1.5c-1.3,0.4-2.5,0.9-3.5,1.5s-1.8,1.1-2.3,1.6
				c-0.4,0.3-0.9,0.8-1.6,1.5c-0.7,0.7-1.7,1.6-2.9,2.8c1.3,1.6,2.7,3.5,4.3,5.7s2.8,3.8,3.5,4.8c0.7,0.9,1.3,1.5,1.9,1.8
				s1.3,0.5,2.4,0.5V37.9z"/>
			<path class="st3" d="M-153.7,32.5c-1,1.8-2.3,3.3-3.9,4.4s-3.5,1.6-5.6,1.6c-1.9,0-3.5-0.3-4.9-1s-2.6-1.5-3.5-2.7
				s-1.6-2.4-2-3.9s-0.7-3.1-0.7-4.8c0-1.5,0.2-3,0.7-4.4s1.2-2.7,2.1-3.9c0.9-1.1,2-2,3.3-2.7s2.8-1,4.4-1c1.7,0,3.1,0.3,4.3,0.8
				s2.2,1.3,2.9,2.2c0.7,0.9,1.3,1.9,1.6,3.1s0.5,2.5,0.5,3.9v1.5h-15.3c0,1.5,0.1,2.9,0.4,4.1c0.3,1.2,0.7,2.3,1.4,3.3
				c0.6,0.9,1.4,1.6,2.4,2.1c1,0.5,2.2,0.8,3.5,0.8c1.4,0,2.6-0.3,3.6-1c1-0.7,2-1.8,2.9-3.5L-153.7,32.5z M-158.9,23.7
				c0-0.9-0.1-1.8-0.2-2.8s-0.4-1.8-0.7-2.5c-0.4-0.7-0.9-1.3-1.5-1.8c-0.6-0.5-1.4-0.7-2.4-0.7c-1.6,0-3,0.7-4.1,2
				c-1.1,1.4-1.7,3.3-1.8,5.7H-158.9z"/>
			<path class="st3" d="M-131.2,35.5c0.6,0.6,1.1,1.3,1.5,2s0.5,1.7,0.5,2.8s-0.2,2.2-0.7,3.1s-1.2,1.8-2.2,2.5
				c-1,0.7-2.3,1.3-3.8,1.7s-3.3,0.6-5.4,0.6c-3.5,0-6.1-0.5-7.9-1.5s-2.6-2.5-2.6-4.5c0-1.6,0.6-2.9,1.9-3.8s2.8-1.4,4.8-1.5v-0.3
				c-0.5-0.1-1-0.3-1.5-0.5s-0.9-0.5-1.3-0.7c-0.4-0.3-0.7-0.7-1-1.2s-0.4-1-0.4-1.7c0-0.8,0.3-1.6,0.9-2.3s1.5-1.3,2.7-1.8v-0.4
				c-1.5-0.7-2.7-1.6-3.5-2.7s-1.2-2.4-1.2-3.8c0-2.2,0.8-4,2.4-5.4s3.7-2.1,6.3-2.1c0.7,0,1.4,0.1,2.1,0.2s1.4,0.3,2.1,0.5h8.1v2.3
				h-5.4v0.1c0.6,0.7,1,1.4,1.3,2.2s0.4,1.6,0.4,2.4c0,2-0.8,3.8-2.5,5.2s-3.6,2.1-5.8,2.1h-2.8c-0.4,0.1-0.7,0.4-1.1,0.7
				s-0.6,0.8-0.6,1.3c0,0.6,0.2,1,0.5,1.3s0.7,0.5,1.2,0.6c0.5,0.1,1,0.2,1.6,0.2s1.2,0.1,1.9,0.1c0.7,0,1.6,0.1,2.8,0.1
				s2,0.1,2.5,0.1c0.7,0,1.4,0.2,2.2,0.5S-131.8,35-131.2,35.5z M-133.1,41.2c0-0.9-0.2-1.6-0.6-2.2s-1-0.9-1.9-1.1
				c-0.4-0.1-1.3-0.1-2.7-0.2s-2.9-0.1-4.7-0.1c-1.7,0.3-2.9,0.9-3.6,1.7s-1.1,1.8-1.1,3c0,0.5,0.1,1.1,0.4,1.6s0.6,1,1.2,1.4
				c0.5,0.4,1.3,0.7,2.2,1s2,0.4,3.4,0.4c2.3,0,4.1-0.4,5.4-1.3S-133.1,43-133.1,41.2z M-137.6,21.8c0-1.8-0.4-3.3-1.1-4.4
				s-1.8-1.6-3.1-1.6c-0.7,0-1.4,0.2-1.9,0.5s-0.9,0.7-1.3,1.3c-0.3,0.5-0.5,1.1-0.7,1.9s-0.2,1.5-0.2,2.2c0,1.7,0.4,3.1,1.1,4.2
				s1.7,1.6,2.9,1.6c1.3,0,2.4-0.5,3.1-1.6S-137.6,23.5-137.6,21.8z"/>
			<path class="st3" d="M-106.1,32.5c-1,1.8-2.3,3.3-3.9,4.4s-3.5,1.6-5.6,1.6c-1.9,0-3.5-0.3-4.9-1s-2.6-1.5-3.5-2.7
				s-1.6-2.4-2-3.9s-0.7-3.1-0.7-4.8c0-1.5,0.2-3,0.7-4.4s1.2-2.7,2.1-3.9c0.9-1.1,2-2,3.3-2.7s2.8-1,4.4-1c1.7,0,3.1,0.3,4.3,0.8
				s2.2,1.3,2.9,2.2c0.7,0.9,1.3,1.9,1.6,3.1s0.5,2.5,0.5,3.9v1.5h-15.3c0,1.5,0.1,2.9,0.4,4.1c0.3,1.2,0.7,2.3,1.4,3.3
				c0.6,0.9,1.4,1.6,2.4,2.1c1,0.5,2.2,0.8,3.5,0.8c1.4,0,2.6-0.3,3.6-1c1-0.7,2-1.8,2.9-3.5L-106.1,32.5z M-111.3,23.7
				c0-0.9-0.1-1.8-0.2-2.8s-0.4-1.8-0.7-2.5c-0.4-0.7-0.9-1.3-1.5-1.8c-0.6-0.5-1.4-0.7-2.4-0.7c-1.6,0-3,0.7-4.1,2
				c-1.1,1.4-1.7,3.3-1.8,5.7H-111.3z"/>
			<path class="st3" d="M-92.6,37.9h-11.3v-1.5c0.4,0,0.7-0.1,1.1-0.1s0.7-0.1,1-0.2c0.4-0.1,0.8-0.4,1-0.7c0.2-0.4,0.3-0.8,0.3-1.4
				V7.2c0-0.6-0.1-1.1-0.4-1.6s-0.6-0.9-0.9-1.2c-0.3-0.2-0.8-0.4-1.5-0.5c-0.8-0.2-1.4-0.3-1.8-0.3V2.2l8.7-0.5L-96,2v31.7
				c0,0.5,0.1,1,0.3,1.3s0.5,0.6,1,0.8c0.3,0.2,0.7,0.3,1,0.4s0.7,0.1,1.1,0.2V37.9z"/>
		</g>
		<g>
			<g>
				<g>
					
						<rect x="-170.7" y="50.4" transform="matrix(0.7071 -0.7071 0.7071 0.7071 -86.4464 -103.9105)" class="st3" width="4" height="4"/>
				</g>
				<g>
					<path class="st3" d="M-183.2,69.7l-2.8-2.8l3.3-3.3l2.8,2.8L-183.2,69.7z M-175.4,61.9l-2.8-2.8l3.3-3.3l2.8,2.8L-175.4,61.9z"
						/>
				</g>
				<g>
					<polygon class="st3" points="-190.8,77.3 -195,73.1 -192.2,70.3 -190.8,71.7 -189.3,70.3 -186.5,73.1 					"/>
				</g>
				<g>
					<path class="st3" d="M-198.4,69.7l-3.3-3.3l2.8-2.8l3.3,3.3L-198.4,69.7z M-206.2,61.9l-3.3-3.3l2.8-2.8l3.3,3.3L-206.2,61.9z"
						/>
				</g>
				<g>
					
						<rect x="-214.9" y="50.4" transform="matrix(0.7071 -0.7071 0.7071 0.7071 -99.3955 -135.1724)" class="st3" width="4" height="4"/>
				</g>
			</g>
			<g>
				<g>
					
						<rect x="-214" y="-5.2" transform="matrix(0.7071 -0.7071 0.7071 0.7071 -59.8141 -150.8718)" class="st3" width="4" height="4"/>
				</g>
				<g>
					<path class="st3" d="M-206-6.4l-2.8-2.8l3.2-3.2l2.8,2.8L-206-6.4z M-198.6-13.9l-2.8-2.8l3.2-3.2l2.8,2.8L-198.6-13.9z"/>
				</g>
				<g>
					<polygon class="st3" points="-189.3,-20.3 -190.8,-21.7 -192.2,-20.3 -195,-23.1 -190.8,-27.3 -186.5,-23.1 					"/>
				</g>
				<g>
					<path class="st3" d="M-175.5-6.4l-3.2-3.2l2.8-2.8l3.2,3.2L-175.5-6.4z M-183-13.9l-3.2-3.2l2.8-2.8l3.2,3.2L-183-13.9z"/>
				</g>
				<g>
					
						<rect x="-171.5" y="-5.2" transform="matrix(0.7072 -0.707 0.707 0.7072 -47.3468 -120.7871)" class="st3" width="4" height="4"/>
				</g>
			</g>
		</g>
	</g>
	<g>
		<rect x="2.5" y="8" class="st3" width="45" height="4"/>
	</g>
	<g>
		<rect x="2.5" y="23" class="st3" width="45" height="4"/>
	</g>
	<g>
		<rect x="2.5" y="38" class="st3" width="45" height="4"/>
	</g>
</g>
</svg>
