<?xml version="1.0" encoding="utf-8"?>
<!-- Generator: Adobe Illustrator 23.0.0, SVG Export Plug-In . SVG Version: 6.00 Build 0)  -->
<svg version="1.1" xmlns="http://www.w3.org/2000/svg" xmlns:xlink="http://www.w3.org/1999/xlink" x="0px" y="0px"
	 viewBox="0 0 50 50" style="enable-background:new 0 0 50 50;" xml:space="preserve">
<style type="text/css">
	.st0{fill:none;stroke:#37384B;stroke-width:4;stroke-miterlimit:10;}
	.st1{fill:none;stroke:#37384B;stroke-width:4;stroke-miterlimit:10;stroke-dasharray:4.7367,6.3156,4.7367,4.7367;}
	.st2{fill:none;stroke:#37384B;stroke-width:4;stroke-miterlimit:10;stroke-dasharray:4.5139,6.0186,4.5139,4.5139;}
	.st3{fill:#37384B;}
</style>
<g id="Capa_2">
</g>
<g id="Capa_1">
	<polygon class="st3" points="32,25 14.9,16 14.9,22.9 4,22.9 4,27.1 14.9,27.1 14.9,34 	"/>
	<g>
		<g>
			<polygon class="st3" points="10.5,12.8 7.5,12.8 7.5,2 16.5,2 16.5,5 10.5,5 			"/>
		</g>
		<g>
			<rect x="21.5" y="2" class="st3" width="12.5" height="3"/>
		</g>
		<g>
			<polygon class="st3" points="48,11 45,11 45,5 39,5 39,2 48,2 			"/>
		</g>
		<g>
			<rect x="45" y="17.2" class="st3" width="3" height="15.6"/>
		</g>
		<g>
			<polygon class="st3" points="48,48 39,48 39,45 45,45 45,39 48,39 			"/>
		</g>
		<g>
			<rect x="21.5" y="45" class="st3" width="12.5" height="3"/>
		</g>
		<g>
			<polygon class="st3" points="16.5,48 7.5,48 7.5,36.9 10.5,36.9 10.5,45 16.5,45 			"/>
		</g>
	</g>
</g>
</svg>
