<svg xmlns="http://www.w3.org/2000/svg" viewBox="0 0 190 110"><defs><style>.cls-1{fill:#37384b;}</style></defs><title>logo_miskegelMesa de trabajo 3</title><g id="Capa_1" data-name="Capa 1"><path class="cls-1" d="M42.49,67.92H31.24V66.37l1.09-.1a4.3,4.3,0,0,0,1-.18,1.67,1.67,0,0,0,1-.74A2.65,2.65,0,0,0,34.59,64V52.05a5.68,5.68,0,0,0-1.11-3.76A3.48,3.48,0,0,0,30.7,47a6.61,6.61,0,0,0-2.16.35,7,7,0,0,0-1.85,1,6,6,0,0,0-1.14,1.11,11.74,11.74,0,0,0-.69,1V63.74a2.94,2.94,0,0,0,.28,1.35,1.85,1.85,0,0,0,1,.81,7.28,7.28,0,0,0,1,.32,6.91,6.91,0,0,0,1.13.15v1.55h-11V66.37l1-.1a4.26,4.26,0,0,0,.93-.18,1.67,1.67,0,0,0,1-.74A2.65,2.65,0,0,0,20.46,64V52.05a5.68,5.68,0,0,0-1.12-3.76A3.47,3.47,0,0,0,16.56,47a6.13,6.13,0,0,0-2.16.37,6.91,6.91,0,0,0-1.86,1,5.74,5.74,0,0,0-1.15,1.16l-.71,1V63.7A2.5,2.5,0,0,0,11,65a2,2,0,0,0,1,.82,4.1,4.1,0,0,0,1,.35,7.54,7.54,0,0,0,1.15.17v1.55H2.93V66.37L4,66.27a4.59,4.59,0,0,0,1-.18,1.71,1.71,0,0,0,1-.74A2.65,2.65,0,0,0,6.32,64V49.63A2.66,2.66,0,0,0,6,48.28a3.11,3.11,0,0,0-.94-1,4.07,4.07,0,0,0-1.11-.46,6.66,6.66,0,0,0-1.36-.22V45l7.74-.51.33.32v3.31h.16c.39-.39.87-.85,1.43-1.38a11.51,11.51,0,0,1,1.57-1.29,7.36,7.36,0,0,1,2-.94,9.1,9.1,0,0,1,2.66-.38,6.33,6.33,0,0,1,3.87,1.21A6.91,6.91,0,0,1,24.7,48.3l1.49-1.44a11.45,11.45,0,0,1,1.69-1.33,7.85,7.85,0,0,1,2.1-1,8.94,8.94,0,0,1,2.68-.38,5.87,5.87,0,0,1,4.63,1.93Q39,48,39,52V63.74a2.82,2.82,0,0,0,.28,1.35,1.82,1.82,0,0,0,1,.81,6.38,6.38,0,0,0,1.06.32,9.64,9.64,0,0,0,1.19.15Z"/><path class="cls-1" d="M56.43,67.92H45.28V66.37l1.11-.1a4.48,4.48,0,0,0,1-.18,1.71,1.71,0,0,0,1-.74A2.65,2.65,0,0,0,48.68,64V49.72a2.86,2.86,0,0,0-.34-1.36,3.08,3.08,0,0,0-1-1,4.88,4.88,0,0,0-1.29-.48,9.63,9.63,0,0,0-1.55-.24V45l8.16-.51.33.32V63.7a2.68,2.68,0,0,0,.31,1.36,1.85,1.85,0,0,0,1,.79,7,7,0,0,0,1,.34,5.77,5.77,0,0,0,1.09.18ZM53.5,35.41a3.42,3.42,0,0,1-.87,2.33,2.8,2.8,0,0,1-2.17,1,2.76,2.76,0,0,1-2.08-1,3.15,3.15,0,0,1-.88-2.17,3.25,3.25,0,0,1,.88-2.25,2.74,2.74,0,0,1,2.08-1,2.89,2.89,0,0,1,2.19.9A3,3,0,0,1,53.5,35.41Z"/><path class="cls-1" d="M74.55,56.6A6,6,0,0,1,76,58.54a6.38,6.38,0,0,1,.51,2.7,6.58,6.58,0,0,1-2.4,5.25,9.33,9.33,0,0,1-6.22,2,9.45,9.45,0,0,1-3.72-.72,10.18,10.18,0,0,1-2.42-1.34L61.31,68H59.55l-.23-8h1.61a9.17,9.17,0,0,0,.8,2.14,10.54,10.54,0,0,0,1.48,2.21A8.17,8.17,0,0,0,65.4,66a5.84,5.84,0,0,0,2.87.7,5.26,5.26,0,0,0,3.47-1A3.64,3.64,0,0,0,73,62.78a3.53,3.53,0,0,0-.39-1.7,3.84,3.84,0,0,0-1.14-1.25,8.75,8.75,0,0,0-1.89-1C68.79,58.57,68,58.28,67,58a23.83,23.83,0,0,1-2.45-.9,9.5,9.5,0,0,1-2.31-1.35,6.71,6.71,0,0,1-1.69-2,5.76,5.76,0,0,1-.65-2.82A6.3,6.3,0,0,1,62,46.12a7.93,7.93,0,0,1,5.64-2,11.7,11.7,0,0,1,2.78.35,9.63,9.63,0,0,1,2.31.85l.54-1.22H75l.35,7.43H73.73a7.42,7.42,0,0,0-2.12-4.06,5.5,5.5,0,0,0-4-1.57,4.43,4.43,0,0,0-3,1,3,3,0,0,0-1.1,2.34A3.66,3.66,0,0,0,63.88,51,3.24,3.24,0,0,0,65,52.19a9.71,9.71,0,0,0,1.77.88c.72.27,1.59.58,2.64.92a22.46,22.46,0,0,1,2.92,1.15A9.38,9.38,0,0,1,74.55,56.6Z"/><path class="cls-1" d="M104.53,67.92h-7l-3.91-5.67c-1.4-2-2.84-4-4.35-5.88l-1.92,1.8v5.48A2.75,2.75,0,0,0,87.68,65a1.78,1.78,0,0,0,1,.81,5.63,5.63,0,0,0,1.08.35,7.39,7.39,0,0,0,1.19.17v1.55H79.61V66.37l1.12-.11a5.48,5.48,0,0,0,1-.17,1.76,1.76,0,0,0,1-.74A2.65,2.65,0,0,0,83,64V37.1a3.77,3.77,0,0,0-.36-1.63,2.78,2.78,0,0,0-1-1.16,3.16,3.16,0,0,0-1.54-.5c-.69-.07-1.25-.13-1.67-.16v-1.5L87,31.63l.33.36V56.44l3.95-3.93q2.13-2.1,3.58-3.73a5.13,5.13,0,0,0,.41-.56,1.06,1.06,0,0,0,.22-.55c0-.42-.34-.74-1-.94a11.6,11.6,0,0,0-2-.42v-1.5h10.16v1.45a16.33,16.33,0,0,0-3.48,1.46,14.93,14.93,0,0,0-2.31,1.59c-.37.31-.9.82-1.59,1.52s-1.65,1.62-2.89,2.76c1.28,1.58,2.73,3.47,4.33,5.67s2.77,3.8,3.5,4.79a4.6,4.6,0,0,0,4.25,2.32Z"/><path class="cls-1" d="M126.28,62.48a11.87,11.87,0,0,1-3.89,4.4,9.78,9.78,0,0,1-5.6,1.64,11.35,11.35,0,0,1-4.89-1,9.72,9.72,0,0,1-3.46-2.67,11.6,11.6,0,0,1-2-3.94,16.79,16.79,0,0,1-.66-4.76,13.85,13.85,0,0,1,.71-4.41,12.61,12.61,0,0,1,2.1-3.91,10,10,0,0,1,3.32-2.68,9.55,9.55,0,0,1,4.44-1,10.69,10.69,0,0,1,4.33.8,7.57,7.57,0,0,1,2.93,2.18,8.59,8.59,0,0,1,1.61,3.09,13.67,13.67,0,0,1,.52,3.87v1.54h-15.3a18.22,18.22,0,0,0,.43,4.14A10,10,0,0,0,112.21,63a6.46,6.46,0,0,0,2.4,2.15,7.28,7.28,0,0,0,3.51.79,6.51,6.51,0,0,0,3.6-1,9.62,9.62,0,0,0,2.92-3.52Zm-5.18-8.81a20.34,20.34,0,0,0-.22-2.81,8.54,8.54,0,0,0-.72-2.5,4.75,4.75,0,0,0-1.48-1.75,4,4,0,0,0-2.41-.68,5,5,0,0,0-4.09,2,9.47,9.47,0,0,0-1.77,5.69Z"/><path class="cls-1" d="M148.75,65.52a6.88,6.88,0,0,1,1.48,2,6.43,6.43,0,0,1,.54,2.79,6.89,6.89,0,0,1-.73,3.13,7,7,0,0,1-2.2,2.54,12,12,0,0,1-3.75,1.71,20.16,20.16,0,0,1-5.39.61q-5.25,0-7.85-1.53a4.91,4.91,0,0,1-2.6-4.49,4.45,4.45,0,0,1,1.87-3.78A8.46,8.46,0,0,1,134.9,67V66.7a14.33,14.33,0,0,1-1.45-.53,5.67,5.67,0,0,1-1.29-.74,3.89,3.89,0,0,1-1-1.16,3.33,3.33,0,0,1-.38-1.65,3.47,3.47,0,0,1,.88-2.29,7,7,0,0,1,2.66-1.79v-.35a9.07,9.07,0,0,1-3.49-2.71,6.19,6.19,0,0,1-1.24-3.83,6.8,6.8,0,0,1,2.44-5.39,9.27,9.27,0,0,1,6.27-2.11,10.53,10.53,0,0,1,2.1.21c.7.14,1.4.32,2.12.54h8.07v2.25h-5.44v.14a6.67,6.67,0,0,1,1.29,2.23,7.3,7.3,0,0,1,.42,2.39,6.54,6.54,0,0,1-2.47,5.15,8.59,8.59,0,0,1-5.76,2.11h-2.83a3.73,3.73,0,0,0-1.13.68,1.66,1.66,0,0,0-.58,1.34,1.69,1.69,0,0,0,.49,1.32,2.52,2.52,0,0,0,1.19.62,7.1,7.1,0,0,0,1.59.24l1.86.07c.69,0,1.63.06,2.82.14s2.05.12,2.55.14a5.93,5.93,0,0,1,2.16.52A6.93,6.93,0,0,1,148.75,65.52Zm-1.82,5.68a3.63,3.63,0,0,0-.61-2.16,3.11,3.11,0,0,0-1.86-1.15c-.43-.06-1.33-.13-2.69-.21s-2.94-.12-4.73-.12a6.44,6.44,0,0,0-3.6,1.66,4.24,4.24,0,0,0-1.07,3,3.49,3.49,0,0,0,1.57,3,6.73,6.73,0,0,0,2.2,1,12.66,12.66,0,0,0,3.38.39A9.69,9.69,0,0,0,145,75.22,4.52,4.52,0,0,0,146.93,71.2Zm-4.5-19.39a7.67,7.67,0,0,0-1.12-4.37,3.58,3.58,0,0,0-3.13-1.63,3.71,3.71,0,0,0-1.88.46,3.55,3.55,0,0,0-1.28,1.3,5.5,5.5,0,0,0-.67,1.87,12.58,12.58,0,0,0-.2,2.23,7.31,7.31,0,0,0,1.14,4.25,3.45,3.45,0,0,0,2.94,1.64,3.55,3.55,0,0,0,3.11-1.63A7.32,7.32,0,0,0,142.43,51.81Z"/><path class="cls-1" d="M173.93,62.48a11.87,11.87,0,0,1-3.89,4.4,9.78,9.78,0,0,1-5.61,1.64,11.31,11.31,0,0,1-4.88-1,9.72,9.72,0,0,1-3.46-2.67,11.43,11.43,0,0,1-2-3.94,16.8,16.8,0,0,1-.67-4.76,13.86,13.86,0,0,1,.72-4.41,12.61,12.61,0,0,1,2.1-3.91,10.11,10.11,0,0,1,3.31-2.68,9.55,9.55,0,0,1,4.44-1,10.71,10.71,0,0,1,4.34.8,7.65,7.65,0,0,1,2.93,2.18,8.75,8.75,0,0,1,1.61,3.09,13.67,13.67,0,0,1,.52,3.87v1.54h-15.3a18.22,18.22,0,0,0,.43,4.14A10,10,0,0,0,159.86,63a6.51,6.51,0,0,0,2.39,2.15,7.35,7.35,0,0,0,3.52.79,6.51,6.51,0,0,0,3.6-1,9.62,9.62,0,0,0,2.92-3.52Zm-5.18-8.81a19,19,0,0,0-.23-2.81,8.25,8.25,0,0,0-.71-2.5,4.75,4.75,0,0,0-1.48-1.75,4,4,0,0,0-2.41-.68,5,5,0,0,0-4.09,2,9.47,9.47,0,0,0-1.77,5.69Z"/><path class="cls-1" d="M187.43,67.92H176.15V66.37l1.15-.11a5.54,5.54,0,0,0,1-.17,1.73,1.73,0,0,0,1-.74,2.55,2.55,0,0,0,.33-1.37V37.19a3.55,3.55,0,0,0-.36-1.58,3.05,3.05,0,0,0-.95-1.16,4.84,4.84,0,0,0-1.55-.52,15,15,0,0,0-1.8-.28v-1.5l8.69-.52L184,32V63.7a2.58,2.58,0,0,0,.31,1.34,1.86,1.86,0,0,0,1,.81,4.57,4.57,0,0,0,1,.35,7.05,7.05,0,0,0,1.14.17Z"/><rect class="cls-1" x="109.35" y="80.39" width="4" height="4" transform="translate(-25.65 102.87) rotate(-45)"/><path class="cls-1" d="M96.83,99.74,94,96.91l3.35-3.35,2.83,2.83Zm7.82-7.82-2.83-2.83,3.35-3.35L108,88.57Z"/><polygon class="cls-1" points="89.24 107.33 85 103.09 87.83 100.26 89.24 101.67 90.65 100.26 93.48 103.09 89.24 107.33"/><path class="cls-1" d="M81.65,99.74,78.3,96.39l2.83-2.83,3.35,3.35Zm-7.82-7.82-3.35-3.35,2.83-2.83,3.35,3.35Z"/><rect class="cls-1" x="65.13" y="80.39" width="4" height="4" transform="translate(-38.6 71.6) rotate(-45)"/><rect class="cls-1" x="65.97" y="24.77" width="4" height="4" transform="translate(0.98 55.9) rotate(-45)"/><path class="cls-1" d="M74,23.57l-2.82-2.82,3.19-3.2,2.83,2.83Zm7.45-7.44L78.61,13.3l3.2-3.19,2.82,2.82Z"/><polygon class="cls-1" points="90.65 9.74 89.24 8.33 87.83 9.74 85 6.92 89.24 2.67 93.48 6.92 90.65 9.74"/><path class="cls-1" d="M104.49,23.57l-3.2-3.19,2.83-2.83,3.19,3.2ZM97,16.13l-3.19-3.2,2.82-2.82,3.2,3.19Z"/><rect class="cls-1" x="108.51" y="24.77" width="4" height="4" transform="translate(13.43 85.97) rotate(-45)"/></g></svg>